<?xml version="1.0" standalone="no"?>
<!DOCTYPE svg PUBLIC "-//W3C//DTD SVG 20010904//EN"
 "http://www.w3.org/TR/2001/REC-SVG-20010904/DTD/svg10.dtd">
<svg version="1.0" xmlns="http://www.w3.org/2000/svg"
 width="1280.000000pt" height="1280.000000pt" viewBox="0 0 1280.000000 1280.000000"
 preserveAspectRatio="xMidYMid meet">
<metadata>
Created by potrace 1.11, written by Peter Selinger 2001-2013
</metadata>
<g transform="translate(0.000000,1280.000000) scale(0.100000,-0.100000)"
fill="#000000" stroke="none">
<path d="M0 11200 l0 -1600 6400 0 6400 0 0 1600 0 1600 -6400 0 -6400 0 0
-1600z"/>
<path d="M3888 9045 c-3 -3 -84 -10 -179 -16 -212 -11 -317 -22 -429 -43 -47
-8 -103 -18 -125 -21 -22 -3 -56 -10 -75 -15 -19 -4 -60 -13 -90 -20 -87 -19
-307 -86 -375 -115 -16 -7 -48 -20 -70 -28 -96 -36 -281 -132 -393 -203 -241
-154 -507 -428 -669 -689 -57 -93 -146 -269 -187 -370 -15 -38 -32 -78 -37
-87 -5 -10 -9 -26 -9 -36 0 -10 -4 -22 -9 -27 -4 -6 -11 -22 -15 -37 l-6 -28
598 0 598 0 56 83 c137 201 339 361 603 477 55 25 198 68 270 81 28 5 73 14
100 19 192 36 377 50 686 50 l317 0 6 -22 c3 -13 6 -173 6 -355 l0 -333 545 0
545 0 -2 868 -3 867 -826 3 c-454 1 -828 0 -831 -3z"/>
<path d="M5876 9034 c-3 -8 -6 -400 -6 -870 l0 -854 550 0 550 0 -2 868 -3
867 -541 3 c-488 2 -542 1 -548 -14z"/>
<path d="M7277 9044 c-4 -4 -7 -396 -7 -871 l0 -863 545 0 545 0 2 353 3 352
350 0 c347 0 453 -8 665 -46 30 -6 73 -12 95 -16 22 -3 44 -9 49 -14 6 -5 19
-9 30 -9 23 -1 123 -33 133 -44 3 -3 13 -6 20 -6 30 0 184 -77 285 -143 124
-81 285 -239 361 -354 l49 -73 598 0 599 0 -9 28 c-30 103 -72 206 -143 352
-159 326 -402 620 -680 820 -27 19 -60 44 -75 56 -15 12 -47 32 -72 46 -25 14
-63 36 -85 48 -57 33 -224 114 -265 129 -41 15 -64 24 -105 41 -105 42 -334
104 -480 130 -27 5 -93 16 -145 25 -115 20 -232 34 -405 46 -156 12 -1848 23
-1858 13z"/>
<path d="M994 7029 c-82 -24 -86 -58 -78 -604 5 -325 10 -448 19 -472 26 -63
33 -64 458 -61 374 3 383 3 424 25 99 53 116 111 111 374 l-3 194 -34 65 c-54
104 -235 362 -291 414 -80 74 -87 76 -347 75 -125 0 -242 -5 -259 -10z m534
-449 l104 -165 1 -111 c3 -162 14 -155 -232 -152 l-196 3 -3 285 c-1 157 0
291 3 298 3 9 31 12 112 10 l107 -3 104 -165z"/>
<path d="M2113 7020 c-71 -43 -68 -20 -68 -556 0 -472 0 -483 21 -510 39 -53
70 -69 134 -69 64 0 95 16 134 69 21 27 21 38 21 509 l0 482 -23 33 c-13 18
-36 39 -52 47 -42 22 -128 19 -167 -5z"/>
<path d="M2571 7027 c-19 -7 -44 -25 -55 -40 -21 -28 -21 -37 -21 -515 0 -447
1 -490 18 -519 34 -62 38 -63 439 -63 212 0 378 4 399 10 56 16 101 51 129
100 25 44 25 49 25 260 0 212 0 216 -27 272 -41 89 -243 381 -299 433 -78 73
-87 75 -346 74 -150 0 -240 -4 -262 -12z m535 -447 l104 -165 2 -70 c2 -112
-3 -159 -20 -178 -14 -16 -34 -17 -211 -15 l-196 3 -3 285 c-1 157 0 291 3
298 3 9 31 12 111 10 l107 -3 103 -165z"/>
<path d="M3691 7023 c-23 -11 -40 -31 -53 -60 -18 -40 -19 -69 -16 -510 l3
-468 24 -34 c43 -60 53 -61 443 -61 399 0 403 1 445 75 39 68 26 152 -31 205
l-28 25 -260 5 c-243 5 -261 6 -274 24 -16 22 -10 55 14 74 11 9 73 12 225 12
l209 0 38 38 c58 58 66 146 18 207 -38 49 -70 55 -281 55 -175 0 -196 2 -210
18 -21 23 -21 41 -1 70 15 22 19 22 237 22 122 0 239 5 259 10 108 30 138 188
52 271 l-35 34 -372 2 c-332 3 -376 1 -406 -14z"/>
<path d="M5115 7034 c-172 -36 -305 -121 -387 -248 -21 -33 -50 -96 -65 -140
-27 -80 -27 -84 -27 -371 -1 -323 -1 -324 67 -365 30 -19 53 -20 407 -20 420
0 424 1 462 71 25 46 24 134 -2 176 -36 60 -53 63 -319 63 -132 0 -251 4 -265
10 l-26 10 0 148 c0 178 12 231 67 284 58 57 103 68 270 68 163 0 207 13 243
73 29 46 27 133 -2 177 -43 62 -73 70 -248 69 -85 -1 -164 -3 -175 -5z"/>
<path d="M5750 7022 c-70 -35 -70 -31 -70 -552 0 -513 -1 -507 63 -554 27 -20
42 -21 393 -24 321 -2 369 -1 399 14 101 47 109 215 13 274 -31 19 -50 20
-273 20 -202 0 -244 3 -263 16 -25 17 -28 42 -8 70 13 18 31 19 234 24 216 5
221 6 246 29 35 33 60 102 52 143 -9 51 -43 98 -81 114 -26 10 -82 14 -229 14
-164 0 -197 3 -210 16 -21 21 -20 57 2 77 16 15 48 17 243 17 213 0 227 1 269
23 105 54 110 215 8 277 -31 19 -51 20 -393 20 -323 0 -364 -2 -395 -18z"/>
<path d="M7822 7020 c-96 -59 -97 -218 -1 -275 28 -16 56 -21 157 -24 l122 -3
0 -362 c0 -404 1 -410 71 -448 44 -24 124 -24 168 0 70 38 71 44 71 448 l0
362 123 4 c140 4 171 16 207 81 28 48 24 133 -7 175 -45 61 -49 62 -483 62
-377 0 -397 -1 -428 -20z"/>
<path d="M8941 7027 c-13 -6 -34 -25 -45 -40 -21 -28 -21 -39 -24 -507 -3
-531 -3 -532 60 -570 41 -25 116 -26 164 -4 68 32 68 37 74 454 l5 375 126 3
126 3 77 -86 78 -85 -127 0 c-169 0 -201 -15 -233 -109 -9 -24 -9 -45 -2 -70
12 -43 324 -445 371 -478 40 -29 110 -30 159 -5 21 12 45 36 59 64 22 41 24
49 13 84 -7 22 -52 90 -102 152 -49 62 -90 118 -90 123 0 5 24 9 54 9 64 0
112 28 139 80 27 52 20 228 -11 287 -30 57 -170 232 -218 271 -74 62 -77 62
-366 62 -189 0 -270 -4 -287 -13z"/>
<path d="M10241 7024 c-158 -42 -249 -144 -286 -321 -21 -96 -21 -668 -1 -717
42 -101 203 -114 270 -23 18 25 22 47 26 175 l5 147 164 3 c112 2 168 -1 177
-9 11 -9 14 -45 14 -154 0 -140 1 -144 26 -175 53 -62 130 -78 204 -40 77 39
75 25 75 560 0 435 -1 478 -18 507 -32 60 -47 63 -339 62 -197 0 -277 -4 -317
-15z m364 -359 l0 -80 -173 -3 c-193 -3 -191 -3 -173 65 12 45 45 80 87 93 16
5 81 8 144 7 l115 -2 0 -80z"/>
<path d="M11110 7018 c-72 -48 -71 -37 -68 -568 3 -529 1 -510 73 -544 49 -23
670 -24 719 -1 95 45 102 221 12 276 -28 17 -53 19 -248 19 -183 0 -219 2
-232 16 -14 13 -16 61 -16 366 0 294 -2 355 -15 381 -24 49 -61 71 -130 75
-50 3 -66 0 -95 -20z"/>
<path d="M6755 7016 c-16 -7 -39 -23 -50 -36 -19 -21 -20 -38 -23 -506 -3
-545 -5 -526 71 -563 78 -38 165 -20 211 42 20 27 21 44 26 390 l5 362 75 3
c107 5 173 -12 223 -56 69 -63 71 -73 77 -384 5 -260 6 -278 26 -304 35 -48
70 -67 126 -71 65 -5 122 24 149 77 17 31 19 61 19 300 0 300 -7 348 -67 464
-72 138 -203 241 -358 281 -79 20 -465 21 -510 1z"/>
<path d="M1160 5663 c0 -9 4 -30 9 -47 5 -17 15 -51 22 -76 19 -69 78 -251 95
-290 9 -19 19 -44 23 -55 5 -11 30 -65 57 -120 163 -336 391 -617 669 -823 39
-28 81 -60 95 -70 88 -67 347 -197 515 -260 73 -28 106 -38 190 -62 17 -5 55
-16 85 -25 75 -23 171 -43 304 -64 37 -6 72 -13 76 -16 11 -7 157 -25 285 -36
248 -21 642 -29 1275 -27 l685 3 3 993 2 992 -545 0 -545 0 0 -468 c0 -376 -3
-472 -13 -487 -13 -17 -29 -17 -283 -12 -301 8 -468 19 -594 41 -47 8 -103 17
-125 21 -22 3 -58 11 -80 16 -22 6 -58 15 -80 21 -44 11 -119 35 -150 48 -11
4 -36 14 -55 21 -219 79 -447 259 -597 469 -67 94 -173 289 -173 319 0 8 -159
11 -575 11 -532 0 -575 -1 -575 -17z"/>
<path d="M5872 4693 l3 -988 548 -3 547 -2 0 990 0 990 -550 0 -550 0 2 -987z"/>
<path d="M7272 4688 l3 -993 685 -3 c983 -3 1415 19 1691 89 20 5 48 9 62 9
14 0 36 4 49 9 13 5 46 14 73 20 107 25 363 107 380 122 5 5 15 9 22 9 23 0
174 71 303 142 276 153 555 408 727 667 32 47 61 88 66 89 4 2 7 7 7 12 0 5
19 41 43 82 55 95 96 181 147 308 12 30 26 63 31 72 5 10 9 25 9 33 0 8 4 23
9 33 9 18 31 89 51 162 6 25 16 59 21 76 5 17 9 36 9 42 0 9 -140 12 -573 12
l-572 0 -14 -32 c-115 -264 -299 -496 -501 -629 -90 -59 -265 -149 -291 -149
-9 0 -19 -3 -23 -7 -15 -16 -191 -66 -291 -83 -27 -5 -90 -16 -140 -25 -133
-23 -298 -35 -597 -42 -208 -4 -271 -3 -283 7 -13 11 -15 75 -15 486 l0 474
-545 0 -545 0 2 -992z"/>
<path d="M0 1600 l0 -1600 6400 0 6400 0 0 1600 0 1600 -6400 0 -6400 0 0
-1600z"/>
</g>
</svg>
